<svg width="1440" height="463" viewBox="0 0 1440 463" fill="none" xmlns="http://www.w3.org/2000/svg">
<path d="M1616.79 382.638C1555.07 329.854 1413.12 250.34 1339.05 354.556C1246.47 484.826 1132.7 512.128 1052.39 346.755C972.083 181.383 871.138 17.5697 791.944 97.9156C712.749 178.261 681.518 296.05 634.671 349.094C587.823 402.138 533.168 374.056 465.685 289.81C398.203 205.563 323.47 149.399 234.795 281.229C182.886 358.399 27.3278 361.575 0.00013654 361.575" stroke="#E4F3F5" stroke-width="2"/>
<path d="M1625.16 269.279C1563.44 216.495 1427.84 122.328 1340.73 253.127C1242.01 401.336 1139.14 437.23 1044.58 269.283C968.737 134.563 853.291 -11.3145 774.096 69.0314C694.902 149.377 683.243 263.979 644.708 328.803C603.438 398.228 538.186 384.187 470.704 299.94C403.221 215.694 311.78 145.055 244.833 275.759C191.293 380.286 32.9039 413.049 5.57624 413.049" stroke="#E4F3F5" stroke-width="2"/>
<path d="M1618.46 334.027C1556.74 281.243 1440.29 194.707 1341.28 307.745C1210.78 456.736 1128.68 460.796 1036.22 290.583C960.37 150.953 863.329 -3.49809 784.134 76.8478C704.94 157.194 665.925 326.1 611.245 361.569C572.764 386.53 537.628 348.308 479.627 299.944C401.932 235.16 324.298 153.293 250.967 291.363C192.965 400.571 27.884 436.454 0.556345 436.454" stroke="#E4F3F5" stroke-width="2"/>
<path d="M1690 269.963C1597.88 153.821 1434.42 76.8371 1351.32 184.485C1227.73 344.59 1173.41 414.599 1041.24 218.808C950.892 84.9792 853.848 -55.7759 774.654 24.5699C695.459 104.916 670.362 346.719 589.495 353.742C547.158 357.419 521.455 327.242 462.896 280.44C384.359 217.673 337.969 154.072 230.889 295.26C181.369 360.554 58.558 372.488 3.90277 379.509" stroke="#E4F3F5" stroke-width="2"/>
</svg>
